DataType=double
version=3
OpenSimVersion=4.5
endheader
time	AddMag	AddLong	GlutMaxMed	GlutMed	Iliopsoas	Sartorius	SemiMemb	SemiTend	BicFemLong	RecFem	TenFascLat	Gracilis	BicFemShort	VastMed	VastLat	VastInt	GasMed	GasLat	TibAnt	TibPost	ExtHalLong	FlexHalLong	PeroneusLong	Sol	ExtDigLong	GlutMaxLat	FlexDigLong	RecFem2
1	0.06012781946345881	0.1105113325768092	0.05771202408190867	0.08054012002937623	0.09854407024771243	0.06527490317003648	0.07606885828171528	0	0.1262948119792358	0.01496302063881546	0.3735668223371213	0.06574309756785288	0.1653545845597802	0.06307817687661495	0.05365291024309378	0.08712888502443253	0.8040273580745505	0.8743542543723817	0.3470624871415682	0.07040781984643441	0.08113904860980246	0.9388934704529568	0.8728192988434902	0.5412790538840477	0.04282633594201889	0.1167573793902307	0.08803429573062534	0.1558041209892801
1.001	0.06017974161486599	0.1131761414597302	0.05748589175081592	0.08210133573629937	0.100432006189324	0.06598790248621325	0.07732085091614238	0	0.1290674919957621	0.01567072871438372	0.3727108132658912	0.06590268939854681	0.1671817325906752	0.06509247378929729	0.05506116566838409	0.08966214885410108	0.803127842956943	0.8781816320793538	0.346813997269747	0.07332026892457993	0.08099250932561822	0.9399090111772219	0.8699863122469493	0.5438397372710649	0.04321698375301442	0.1167098000763484	0.09091518778486919	0.1568405448293709
1.002	0.06021040325852692	0.1157362358568696	0.05723581402252671	0.08359123607201509	0.1022298915726309	0.06665198454863562	0.07851230195580365	0	0.1317437806889065	0.01636053931414268	0.3718232969246303	0.06604515154469742	0.1689192949146073	0.06703865874466515	0.05641670166931776	0.09210696799317397	0.8021919584747966	0.8819641911914107	0.3465246143666553	0.07622449252163162	0.08082002662894157	0.9408362015270859	0.8671049016203755	0.5463823291950961	0.04357175178685339	0.1166497282581764	0.09369476421849765	0.1578052484959854
1.003	0.06022009516833145	0.1181922055406666	0.05696209441651803	0.08501037150561701	0.1039384087179536	0.06726745029496183	0.0796435806681955	0	0.1343241172092504	0.01703276751952522	0.370904248455767	0.06617074914504571	0.1705682233391182	0.06891708551546952	0.05771981833078644	0.09446399603975611	0.801219514276675	0.8857011118622683	0.3461945258432937	0.07912052421467258	0.08062195736610976	0.9416747597494264	0.8641755859993132	0.5489063072074007	0.04389101248107254	0.1165771663066856	0.09637354605093557	0.1586987836734621
1.004	0.06020911226643862	0.1205446646130402	0.05666504889283662	0.08635930667321907	0.1055582598308426	0.06783461415136041	0.08071506943247077	0	0.1368089621371256	0.01768773703365724	0.3699536549365144	0.06627975140658336	0.1721294904277215	0.07072812530865084	0.05897082968393372	0.0967339070732682	0.8002103248289035	0.8893915784126414	0.3458239280098676	0.08200839537765511	0.08039866538893582	0.9424244197547554	0.861198887339909	0.5514111487552775	0.04417514710638081	0.1164921219656477	0.0989520766900388	0.1595217279684986
1.005	0.06017775351816376	0.1227942511055805	0.05634500574268603	0.08763862006321824	0.1070901666245409	0.06835380392422648	0.08172716352811395	0	0.1391987971661863	0.01832577996272691	0.3689715153520413	0.06637243147802666	0.1736040889193078	0.07247216645439405	0.06017006344579735	0.09891739522286298	0.7991642095627931	0.8930347795928494	0.3454130260721581	0.08488813498461202	0.08015052145674566	0.9430849313175127	0.8581753304572057	0.5538963312542704	0.04442454560409862	0.1163946083416932	0.1014309215499209	0.1602746845866972
1.006	0.06012632182732278	0.1249416265760493	0.05600230547653202	0.08884890370120568	0.1085348699397593	0.06882536068985823	0.08268027092238019	0	0.1414941247840828	0.01894723659480038	0.367957840565589	0.06644906632313395	0.1749930311452697	0.07414961409253601	0.06131786075720594	0.1010151742329241	0.7980809930198416	0.8966299088444259	0.3449620341256115	0.08775976941529719	0.07987790313750703	0.943656060273351	0.8551054429659879	0.5563613321616733	0.04463960642257207	0.116284643891971	0.1038106676662154	0.1609582819997227
1.007	0.06005512393203728	0.1269874757013943	0.05563730070976417	0.08999076283464719	0.1098931293619203	0.06924963868212893	0.08357481205660244	0	0.1436954679503943	0.01955245517617031	0.366912653285547	0.06650993659391104	0.1762973484446259	0.07576088985650536	0.06241457591906299	0.103027977025881	0.7969605049948087	0.9001761645606312	0.3444711751470979	0.09062332226341184	0.07958119470807794	0.9441375887131562	0.8519897552242047	0.5588056290514193	0.04482073635263194	0.1161622524094155	0.1060919233089856	0.1615731736033004
1.008	0.05996447030100226	0.1289325058674872	0.05525035604594888	0.09106481561744198	0.1111657228360303	0.06962700517818499	0.0844112196314656	0	0.1458033697719703	0.02014179168532416	0.3658359880294907	0.06655532650374663	0.1775180905774267	0.07730643155496635	0.06346057612714723	0.1049565552625687	0.7958025806765533	0.9036727503457771	0.3439406809843008	0.09347881414757085	0.07926078705360026	0.9445293151735186	0.8488288002790098	0.5612286996904274	0.04496835036216576	0.116027463005627	0.1082753175934898	0.1621200373662763
1.009	0.05985467503021639	0.1307774467557884	0.05484184795770948	0.09207169279447405	0.1123534462793375	0.06995784038220243	0.08518993839134179	0	0.1478183931758286	0.02071560960461717	0.3647278910851904	0.06658552370051984	0.1786563251367211	0.07878669285133433	0.06445624120555625	0.1068016789003617	0.7946070607865303	0.9071188752732717	0.3433707923427164	0.0963262625251604	0.07891707756606414	0.9448310548233697	0.8456231138154727	0.5636300221164875	0.04508287142987023	0.1158803100913743	0.1103615000890043	0.1625995754709696
1.01	0.0597260557401699	0.1325230499271308	0.05441216466526578	0.09301203738624771	0.113457113191925	0.07024253730722621	0.08591142490777688	0	0.149741120579744	0.02127427968973639	0.3635884204685896	0.06660081913972059	0.1797131369593571	0.08020214294131983	0.06540196333891483	0.1085641357492951	0.7933737917148452	0.9105137541423024	0.3427617587702501	0.09916568150923584	0.07855047004206442	0.9450426396464899	0.8423732341080039	0.5660090747177514	0.04516473037824578	0.1157208333547251	0.1123511404258945	0.1630125139450441
1.011	0.05957893347348823	0.1341700884028248	0.05396170601266606	0.09388650437370556	0.1144775542654125	0.07048150165512523	0.08657614736222255	0	0.1515721535606723	0.02181817973704352	0.362417645878754	0.06660150695762487	0.180689627535903	0.08155326622866534	0.06629814680347293	0.1102447310264034	0.7921026256537744	0.9138566077330947	0.3421138386393985	0.1019970816886107	0.07816137457977154	0.945163918619585	0.8390797019745252	0.5683653363139061	0.04521436570589438	0.1155490777368118	0.1142449279011275	0.1633596022851412
1.012	0.05941363259302511	0.1357193562432784	0.05349088334174246	0.09469576038332041	0.1154156169899291	0.07067515169469052	0.08718458532810047	0	0.1533121125211475	0.0223476943488848	0.3612156486497866	0.06658788434456851	0.1815869144199733	0.08284056199923205	0.06714520769721311	0.111844286908494	0.7907934207286645	0.9171466630606873	0.3414272991270154	0.1048204699512842	0.07775020747513539	0.9451947578856454	0.8357430607334039	0.5706982862390801	0.04523222341918289	0.1153650934052398	0.1160435710824185	0.1636416130725128
1.013	0.05923048068039924	0.1371716681243271	0.05300011936382085	0.09544048337254628	0.1162721652595395	0.07082391813790878	0.0877372295522926	0	0.1549616363538011	0.02286321469695564	0.3599825216997117	0.06656025141836062	0.182406130637238	0.0840645440935941	0.06794357366908794	0.1133636420835836	0.7894460411261364	0.9203831536271769	0.3407024161916409	0.1076358493113545	0.07731739111733983	0.9451350409222949	0.832363856163155	0.57300740442654	0.0452187568633343	0.1151689357251465	0.1177477974112019	0.1638593415808982
1.014	0.05902980843496414	0.1385278589114631	0.05248984802921754	0.09612136231571032	0.1170480789763025	0.0709282440144359	0.08823458173613935	0	0.1565213821041454	0.02336513828380546	0.3587183694763252	0.06651891109787672	0.1831484240943808	0.08522574057829156	0.06869368364750439	0.1148036513012175	0.7880603572195171	0.92356531967237	0.339939474548378	0.1104432187395573	0.07686335388352271	0.9449846687048487	0.8289426364649084	0.5752921714952117	0.04517442655300698	0.1149606652279213	0.1193583528046138	0.1640136053768839
1.015	0.05881194957320369	0.1397887832321499	0.05196051439455529	0.09673909689042748	0.1177442536531414	0.07098858454429899	0.08867715431602984	0	0.1579920246317801	0.02385386870257063	0.357423307900017	0.06646416897686963	0.1838149569882712	0.08632469341589488	0.06939598756817322	0.1161651849218985	0.7866362456914259	0.9266924084227706	0.3391387676412868	0.1132425729975724	0.07638853003277395	0.94474355986377	0.8254799522276299	0.5775520688380605	0.04509970000242461	0.114740347577597	0.1208760012566658	0.1641052439129984
1.016	0.0585772407285391	0.1409553150464005	0.05141257448793293	0.09729439716460822	0.1183616000157105	0.07100540700884504	0.08906547024365719	0	0.1593742562701706	0.02432981539502184	0.3560974643035666	0.06639633319803175	0.1844069052156032	0.08736195813402482	0.07005094610143441	0.1174491284658438	0.7851735896534344	0.9297636743388235	0.3383005976132684	0.1160339024762318	0.07589335959942178	0.9444116508362066	0.8219763563960805	0.5797865787123592	0.04499505155511283	0.1145080535349241	0.1223015244387869	0.1641351181137869
1.017	0.05832602135153836	0.1420283472158027	0.05084649517198322	0.09778798328412874	0.1189010436034305	0.0709791906199579	0.08940006276601717	0	0.1606687864851573	0.02479339340801456	0.3547409773689082	0.06631571432734126	0.1849254577832586	0.08833810349347873	0.07065903037917218	0.1186563821612914	0.7836722787627124	0.9327783793603316	0.3374252752734075	0.1188171930377679	0.07537828828561735	0.9439888960112574	0.8184324042414861	0.5819951843318814	0.04486096221330312	0.1142638589191373	0.1236357212999089	0.164104109955126
